<svg width="45" height="45" viewBox="0 0 45 45" fill="none" xmlns="http://www.w3.org/2000/svg">
<path fill-rule="evenodd" clip-rule="evenodd" d="M36.5056 7.5569C36.7693 7.82062 36.9175 8.17831 36.9175 8.55127V15.7296C36.9175 16.5062 36.2879 17.1358 35.5113 17.1358C34.7346 17.1358 34.105 16.5062 34.105 15.7296V11.9463L28.1819 17.8694C27.6327 18.4186 26.7423 18.4186 26.1931 17.8694C25.644 17.3202 25.644 16.4298 26.1931 15.8807L32.1163 9.95752L28.333 9.95752C27.5563 9.95752 26.9267 9.32792 26.9267 8.55127C26.9267 7.77462 27.5563 7.14502 28.333 7.14502L35.5113 7.14502C35.8842 7.14502 36.2419 7.29317 36.5056 7.5569Z" fill="#2175D8"/>
<path d="M9.37536 18.4884C12.9686 26.3145 19.3624 32.5367 27.3115 35.9098L28.5858 36.4776C31.501 37.7764 34.9281 36.7896 36.7062 34.1393L38.3713 31.6574C38.9127 30.8504 38.7479 29.7636 37.9916 29.1534L32.3444 24.5976C31.5149 23.9284 30.2952 24.0842 29.6607 24.9405L27.9137 27.2979C23.4309 25.0866 19.7914 21.4471 17.5802 16.9643L19.9375 15.2174C20.7938 14.5828 20.9496 13.3631 20.2805 12.5336L15.7244 6.88625C15.1144 6.13009 14.0279 5.96516 13.2209 6.50622L10.7218 8.18191C8.05495 9.97011 7.07361 13.4255 8.40248 16.3485L9.3739 18.4853L9.37536 18.4884Z" fill="#2175D8"/>
</svg>
